-
      the fast  and The Hottest Private Tracker on the net

Please Seed back to make the speed Faster!!
 ............ NFO .............
-[IMG]http://i.imgur.com/R7CQ5Yi.jpg[/IMG]

Source: 720P.x264.AAC-DWR

^^^ Source was ok, all i did was mess with gamma, sat, contrast, brightness, levels and slight sharpen.
 
http://www.imdb.com/title/tt0790724/

A homicide investigator digs deeper into a case involving a trained military sniper who shot five random victims.

General
Complete name                            : Jack Reacher 2013 R6 HDRip x264 AAC-OFFLiNE.mp4
Format                                   : MPEG-4
Format profile                           : Base Media
Codec ID                                 : isom
File size                                : 1.44 GiB
Duration                                 : 2h 10mn
Overall bit rate mode                    : Variable
Overall bit rate                         : 1 576 Kbps
Encoded date                             : UTC 2013-03-12 12:10:25
Tagged date                              : UTC 2013-03-12 12:10:25

Video
ID                                       : 1
Format                                   : AVC
Format/Info                              : Advanced Video Codec
Format profile                           : High@L4.1
Format settings, CABAC                   : Yes
Format settings, ReFrames                : 3 frames
Codec ID                                 : avc1
Codec ID/Info                            : Advanced Video Coding
Duration                                 : 2h 10mn
Bit rate mode                            : Variable
Bit rate                                 : 1 440 Kbps
Maximum bit rate                         : 40.0 Mbps
Width                                    : 720 pixels
Height                                   : 304 pixels
Display aspect ratio                     : 2.35:1
Frame rate mode                          : Constant
Frame rate                               : 29.970 fps
Color space                              : YUV
Chroma subsampling                       : 4:2:0
Bit depth                                : 8 bits
Scan type                                : Progressive
Bits/(Pixel*Frame)                       : 0.220
Stream size                              : 1.31 GiB (91%)
Writing library                          : x264 core 130 r2273 b3065e6

Audio
ID                                       : 2
Format                                   : AAC
Format/Info                              : Advanced Audio Codec
Format profile                           : LC
Codec ID                                 : 40
Duration                                 : 2h 10mn
Bit rate mode                            : Variable
Bit rate                                 : 132 Kbps
Maximum bit rate                         : 193 Kbps
Channel(s)                               : 2 channels
Channel positions                        : Front: L R
Sampling rate                            : 48.0 KHz
Compression mode                         : Lossy
Stream size                              : 123 MiB (8%)
Language                                 : English
Encoded date                             : UTC 2013-03-12 12:11:22
Tagged date                              : UTC 2013-03-12 12:11:29

[img]http://i.imgur.com/jdmomb9.png[/img]
[img]http://i.imgur.com/GHlJyKW.png[/img]
[img]http://i.imgur.com/cxusE8t.png[/img]
[img]http://i.imgur.com/sy7Uos1.png[/img]
[img]http://i.imgur.com/eMWFs8n.png[/img]
[img]http://i.imgur.com/jxhfO8x.png[/img]
[img]http://i.imgur.com/aFUKkzs.png[/img]
[img]http://i.imgur.com/utVOGjq.png[/img]
[img]http://i.imgur.com/O0NPYrT.png[/img]

Greets: To Our Friends